<?xml version="1.0" encoding="utf-8"?>
<svg xmlns="http://www.w3.org/2000/svg" width="141.7" height="141.7">
 <path fill="#624839" d="M1.3,70.5C1.3,32.1,32.4,1,70.8,1s69.6,31.1,69.6,69.6c0,38.4-31.1,69.6-69.6,69.6S1.3,108.9,1.3,70.5L1.3,70.5z"/>
 <path fill="#fff" d="M4.4,70.5c0-36.7,29.7-66.4,66.4-66.4c36.7,0,66.4,29.7,66.4,66.4c0,36.7-29.7,66.4-66.4,66.4C34.1,137,4.4,107.2,4.4,70.5L4.4,70.5z"/>
 <path fill="#E30613" d="M29.8,70.5c0-22.7,18.4-41,41-41c22.7,0,41,18.4,41,41c0,22.7-18.4,41-41,41C48.2,111.6,29.8,93.2,29.8,70.5L29.8,70.5z"/>
 <g fill="#624839">
  <polygon points="27.9,93.3 24.9,93.3 23.4,90.7 21.9,93.3 19,93.3 20.5,95.8 19,98.4 22,98.4 23.5,100.9 25,98.4 27.9,98.4 26.4,95.8 27.9,93.3"/>
  <polygon points="122.9,93.3 119.9,93.3 118.4,90.7 116.9,93.3 114,93.3 115.5,95.8 114,98.4 116.9,98.4 118.4,100.9 119.9,98.4 122.9,98.4 121.4,95.8 122.9,93.3"/>
  <path d="M78.6,8.8l-4.4-0.4l-1.4,16.2l4.8,0.4l0.5-5.3c4.2,0.5,7.1-0.6,7.5-4.8C85.9,10.7,82.8,9.1,78.6,8.8z M80.7,14.4c-0.1,1.2-1,1.8-2.3,1.6l0.3-3.7l0.4,0C80.2,12.4,80.8,13.4,80.7,14.4z"/>
  <path d="M97.4,32.5l3.9-16.3l-5.3-2.6L84.8,26.3l4.5,2.2l1.3-1.7l2.9,1.5l-0.6,2L97.4,32.5L97.4,32.5z M92.7,24l2.3-3.1c0.6-0.8,1.2-1.7,1.8-2.5l0,0c-0.3,1-0.7,1.9-1,2.9l-1.2,3.6L92.7,24L92.7,24z"/>
  <polygon points="25.8,61.5 19.7,60.5 20.3,57 16.5,56.4 15.9,59.8 13.6,59.4 14.2,55.7 10.4,55.1 8.9,63.5 25,66.3 25.8,61.5"/>
  <path d="M16.9,39.6c-0.6,0.6-1.1,1.3-1.5,2c-1.1,2.1-2.5,7.6,4,10.9c5,2.5,8.9,0.8,10.7-2.8c0.5-1,0.7-1.8,0.8-2.9l-3.9-2.3c0.2,1,0.3,1.8-0.2,2.8c-1.1,2.2-3.5,1.6-5.2,0.7c-1.6-0.8-3.6-2.5-2.4-4.8c0.5-0.9,1-1.2,1.9-1.6L16.9,39.6L16.9,39.6z"/>
  <polygon points="114.5,56.3 118,54.7 116.5,51.4 127.9,46.3 125.9,41.9 111.1,48.5 114.5,56.3"/>
  <path d="M117.1,29l-7.5,7c-0.3,0.3-0.7,0.7-1.1,0.9c-0.4,0.2-0.9,0.2-1.3-0.3c-0.5-0.5-0.4-0.9-0.2-1.4c0.2-0.4,0.6-0.8,1-1.1l7.5-7l-3.3-3.5l-7.8,7.3c-1.4,1.3-4,4.4-0.2,8.5c3.8,4.1,7,1.8,8.5,0.4l7.8-7.3L117.1,29L117.1,29z"/>
  <path d="M60.7,26.1c1.4-0.5,2.2-1.9,1.8-3.2c-0.5-1.4-2-2-3.5-1.4c-1.3,0.5-2.1,1.9-1.7,3.2C57.8,25.9,59.3,26.6,60.7,26.1L60.7,26.1z"/>
  <polygon points="54.1,27.8 48.9,16.6 51.5,15.4 49.8,11.8 40.5,16.2 42.1,19.8 44.6,18.7 49.8,29.8 54.1,27.8"/>
  <path d="M38,37.5c1.2-0.4,2.3-1,3.2-1.8c2.6-2.2,2.8-5.5,0.9-7.8c-0.8-0.9-1.6-1.4-2.5-1.6c-0.9-0.2-1.9-0.2-3.1,0c-0.3,0-0.7,0.1-1.1,0.1c-0.4,0-0.7-0.1-0.9-0.4c-0.4-0.5-0.1-1.2,0.3-1.6c0.9-0.7,1.7-1,2.8-1.2l-2.7-3.1c-1.1,0.3-2.3,0.8-3.2,1.6c-3.2,2.7-2,6.2-0.7,7.6c0.8,0.9,1.6,1.4,2.6,1.6c1,0.2,2,0.1,3.2,0c0.4,0,0.7-0.1,1,0c0.3,0,0.6,0.2,0.9,0.5c0.5,0.5,0.1,1.3-0.4,1.7c-0.9,0.8-1.6,1-3,1.1L38,37.5L38,37.5z"/>
  <polygon points="116.4,66.3 132.6,64.1 131.9,59.3 115.8,61.5 116.4,66.3"/>
  <path d="M87.3,113.5c-4.7,1.6-4.4,6.6-3.3,10c1.2,3.4,4,7.5,8.7,5.9c4.7-1.6,4.4-6.6,3.3-10C94.9,116,92,111.9,87.3,113.5L87.3,113.5z M88.6,117c1.4-0.5,2.4,2.2,3,3.9c0.6,1.7,1.4,4.4,0,4.9c-1.4,0.5-2.4-2.2-3-3.9C88,120.2,87.2,117.5,88.6,117L88.6,117z"/>
  <polygon points="48.8,129.2 55.2,114.2 49.9,111.9 47.5,115 49.2,115.8 44.3,127.3 48.8,129.2"/>
  <polygon points="79.9,132.4 78.2,116.2 72.5,116.8 71.9,120.6 73.8,120.5 75.1,132.9 79.9,132.4"/>
  <path d="M63,119.2c1.6,0.3,1.4,1.7,1.2,2.4c-0.2,0.7-0.6,1.9-2.1,1.6c-1.4-0.3-1.5-1.5-1.3-2.2C61,120.2,61.5,118.9,63,119.2L63,119.2z M56.8,131.4l4.7,0.9l2.4-2.4c1.7-1.9,4.1-4.7,4.7-7.2c0.7-3.2-0.8-6.2-4.5-7c-3.8-0.8-6.7,1.1-7.4,4.5c-0.5,2.2,0.4,5.4,3.2,6c0.7,0.1,1.2,0.1,1.7-0.1L56.8,131.4L56.8,131.4z"/>
 </g>
 <g fill="#fff">
  <polygon points="92.8,43.9 89.8,43.9 88.3,41.3 86.8,43.9 83.9,43.9 85.3,46.5 83.9,49 86.8,49 88.3,51.6 89.8,49 92.7,49 91.3,46.5 92.8,43.9"/>
  <path d="M71.8,45.8c3.2,0.2,5.5,2.6,5.8,5.8H64.3c0.2-3.2,2.6-5.6,5.8-5.8v-6.2l-4,0v-1.8l4,0v-5.3h1.8v5.3l4,0v1.8l-4,0V45.8L71.8,45.8z"/>
  <polygon points="46,53.4 61.1,53.4 61.1,56 46,56 46,53.4"/>
  <polygon points="63.4,53.4 78.5,53.4 78.5,56 63.4,56 63.4,53.4"/>
  <polygon points="80.7,53.4 95.9,53.4 95.9,56 80.7,56 80.7,53.4"/>
  <polygon points="46,70.3 95.9,70.3 95.9,73 46,73 46,70.3"/>
  <polygon points="46,85 59.4,85 59.4,87.7 46,87.7 46,85"/>
  <polygon points="82.5,85 95.9,85 95.9,87.7 82.5,87.7 82.5,85"/>
  <path d="M47.8,58.1c1.3-0.4,3.4-1,5-0.1c0.8,0.5,0.3,1.2,0,1.9c-0.9,0.6-1.5,0.9-2.6,0.9c-1,0-1.6-0.2-2.4-0.8C47.5,59.3,47,58.4,47.8,58.1L47.8,58.1z"/>
  <path d="M54.9,60.3c0,0-0.5-1.5,0-2.1c0.6-0.7,1.5-0.1,2.3-0.1c0.6,0,0.9,0.1,1.5,0c0,0,0.4,1.5,0,2.3C58,61.6,54.9,60.3,54.9,60.3L54.9,60.3z"/>
  <path d="M48.6,61.9c-0.5,0.6-0.7,0.7-0.8,1.7c0,1,0.3,1.6,1,1.6c0.2,0,0.4,0,0.6,0c0-0.7,0-1.2,0-1.9C49.4,62.6,49.2,62,48.6,61.9L48.6,61.9z"/>
  <path d="M65.3,61.9c-0.1,0.6-0.1,1.1-0.1,1.7c0,0.6,0,1.4,0.6,1.4c1.1,0.1,1-1.6,1-2.4C66.8,62,66,62,65.3,61.9L65.3,61.9z"/>
  <path d="M64.6,58.6c0,0.4,0.6,1,0.9,1.3c0.6,0.5,1.1,0.4,1.8,0.4c0.4,0,0.9-0.1,1.4-0.1c0.9,0,1.5-0.7,1.5-1.6c0-0.8-1.2-1.1-2-1.1c-0.7,0-1.2,0-1.9,0C65.5,57.6,64.6,57.6,64.6,58.6L64.6,58.6z"/>
  <path d="M71.7,60.2c0.3,0.3,0.6,0.2,1,0.2c0.5,0,0.8,0,1.3,0c0.7,0,1.2,0.1,1.8-0.4c0.5-0.4,0.2-0.8,0.2-1.5c0-0.6-1.3-0.9-2.2-0.9c-0.8,0-1.4-0.1-1.9,0.6C71.4,58.8,71.7,60.2,71.7,60.2L71.7,60.2z"/>
  <path d="M50.7,62.7c0,0.5-0.2,1.1-0.2,1.6c0,0.6,1.3,0.8,1.9,0.8c1,0.1,1.6,0.1,2.6,0.1c0.8,0,1.5-0.6,1.5-1.4c0-0.6,0.1-1.1-0.2-1.5c-0.5-0.6-1.1-0.6-1.9-0.6C53.1,61.5,51.1,61.4,50.7,62.7L50.7,62.7z"/>
  <path d="M68.1,62.7c-0.2,0.6-0.1,1.1,0.3,1.7c0.6,0.8,1.2,0.8,2.5,0.8c1.3,0,3.2-0.6,3-2.4c-0.1-0.5-1.2-0.7-1.8-0.9C72,61.9,68.5,61.2,68.1,62.7L68.1,62.7z"/>
  <path d="M74.9,63.6c0,0.7-0.2,1.6,0.7,1.6c0.8,0,0.9-0.4,0.9-1.1c0-0.6,0.7-2.2-0.3-2.3c-0.4-0.1-0.7,0.1-1,0.4C74.8,62.6,74.9,63.1,74.9,63.6L74.9,63.6z"/>
  <path d="M82,59.1c0,1.3,1.1,1.9,3.2,1.8c1.2-0.1,2.5,0.1,2.3-2.2c0-0.2,0.2-0.5,0-0.6c-1.5-1.1-1.6,0-2.7,0C83.7,58,82,58,82,59.1L82,59.1z"/>
  <path d="M89.6,58.7c0,0.4,0,0.6,0,0.9c0,0.8,0.5,1.8,1.3,1.8c0.3,0,0.8-0.1,1.2-0.1c1.2,0,1.9-1,1.9-2.2c0-0.6-0.8-1-1.4-1.2l-1.8,0.2l-1,0.1C89.6,58.3,89.6,58.5,89.6,58.7L89.6,58.7z"/>
  <path d="M83.3,61.8c-0.8,0.7-0.9,0.9-0.9,2c0,0.2,0.1,1.1,0.1,1.2c0.2,0,0.5,0.1,0.7,0.1c0.7,0,0.9-0.9,0.9-1.6C84.1,62.8,83.9,62.2,83.3,61.8L83.3,61.8z"/>
  <path d="M85.2,63.5c0,0.2,0.3,0.7,0.7,1.1c0.7,0.6,1.5,0.5,2.3,0.5c0.9,0,2.2-0.4,2.2-1.7c0.1-1-1.9-1.5-2.8-1.5C86.7,61.8,85,62.2,85.2,63.5L85.2,63.5z"/>
  <path d="M89.5,67.2c0,1.1,1.2,1.6,2.4,1.6c0.5,0,0.7-0.4,1.2-0.6c0.4-0.2,0.8-0.5,0.8-0.9c0-0.8-0.8-1.2-1.6-1.2C91.1,66,89.5,66,89.5,67.2L89.5,67.2z"/>
  <path d="M86.7,68.8c0.7-0.5,1.4-1.6,0.8-2.1c-0.4-0.3-1.1,0-1.4,0c-0.5,0-0.8-0.3-1.4-0.3c-0.8,0-1.7-0.3-2.1,0.4c-0.2,0.3-0.2,0.6-0.2,0.7c0,0.6,0,0.9,0.3,1.4c0.6,0.7,1.5,0,2.4,0C85.7,69,86.2,69.2,86.7,68.8L86.7,68.8z"/>
  <path d="M75.6,68.8C75,68.9,74.6,69,74.1,69c-0.9,0-1.4-0.2-2.1-0.6c-0.2-0.1-0.2-0.3-0.2-0.7c0-1,1.8-1.3,2.7-1.3c0.9,0,1.6,0.3,1.6,1.2C76.1,68.1,75.9,68.4,75.6,68.8L75.6,68.8z"/>
  <path d="M68.2,66.6c-0.5,0-0.9,0-1.5,0c-0.7,0-2,0-2,0.8c0,1,0.9,1,1.9,1c0.4,0,1.5,0,1.9,0c0.9,0,1.7-0.2,1.7-1.1c0-0.4-0.5-0.7-0.9-0.7C68.7,66.7,68.6,66.6,68.2,66.6L68.2,66.6z"/>
  <path d="M57.1,69c-0.8,0-1.3,0-2.1,0c0-0.3-0.6-0.5-0.6-0.8c0-0.3,0.3-0.6,0.5-0.9c1-1.1,2.4,0.1,3.8,0.1c0,0.2,0,0.6,0,0.8c0,0.3-0.4,0.5-0.6,0.6C57.6,69,57.7,69,57.1,69L57.1,69z"/>
  <path d="M51.9,68.8c-1.7,0-1.9,0.2-3.5,0c0-0.1-0.5-0.8-0.5-1.1c0-1,0.6-1,1.6-1c1.2,0,3.3-0.7,3.3,0.6C52.7,67.9,52.4,68.8,51.9,68.8L51.9,68.8z"/>
  <path d="M47.7,75.9c0.1,1.2,1.7,0.7,2.9,0.7c0.9,0,1.5,0.3,2.4,0c0.7-0.2,0.8-0.9,0.8-1.6c0-0.3-0.6-0.5-0.9-0.6c-1-0.1-1.2,0.1-2.1-0.4C49.9,73.4,47.6,74.4,47.7,75.9L47.7,75.9z"/>
  <path d="M56,74.4c-0.8,0.6,0,2.1,1.1,2.1c0.5,0,1.6,0,2.1,0c0.3,0,0.6,0,0.9,0c0.6,0,1.1,0,1.7,0c0.9,0,1.9-0.4,1.8-1.6c-0.1-0.7-1.1-0.6-1.8-0.6c-1.2,0-1.9,0.1-3.1,0.1c-0.4,0-0.8,0-1.2,0C56.8,74.4,56.4,74,56,74.4L56,74.4z"/>
  <path d="M47.7,78.3c-0.7,0.4,0.1,1.3,0.1,2c0,0.8,0.6,0.7,1,0.7c0.6,0,1.2-0.3,1.2-0.9c0-1-0.4-2-1.5-2C48.3,78.1,48,78.1,47.7,78.3L47.7,78.3z"/>
  <path d="M58.7,79.4c0,0.6,0.5,1,1.1,1c0.9,0,1.5-1,1.6-2.1c-0.5-0.5-1.3-0.1-2.1-0.1C58.8,78.3,58.7,78.9,58.7,79.4L58.7,79.4z"/>
  <path d="M54.9,82.8c0,0.6,0.5,0.9,1.1,0.9c0.8,0,1.8,0.3,2.5-0.3c0.4-0.3,0.4-0.8,0.4-1.4c0-0.2,0-0.3-0.3-0.4c-0.1,0-0.8-0.1-0.9-0.1C56.3,81.4,54.9,81.3,54.9,82.8L54.9,82.8z"/>
  <path d="M54.1,77.8c-0.6,0-0.8,0.4-1.4,0.4c-0.7,0-1.8-0.2-1.7,1c0.1,1.2,0.8,1.8,2.8,1.8c1.7,0,3-0.6,3-2C56.8,77.9,55.2,77.7,54.1,77.8L54.1,77.8z"/>
  <path d="M77.7,74.4c1.4-1.4,5.2,0,8.6,0c0.6,0,1.4,0.7,1.4,1.3c0,0.8-1.3,0.9-2.1,0.9c-2.2,0-3.9,0-6.1,0c-1.2,0-2.1-0.3-1.8-1.9C77.8,74.6,77.6,74.5,77.7,74.4L77.7,74.4z"/>
  <path d="M89.6,74.4c0,0.5,0,0.8,0,1.3c0,0.5-0.3,0.9,0.9,0.8c0.7,0,1.1,0,1.7,0c0.4,0,0.6,0,1,0c0.7,0,0.8-1,0.8-1.7c0-0.3-0.4-0.4-0.7-0.4c-0.6-0.1-0.9-0.2-1.6-0.2C90.9,74.2,90.4,74.4,89.6,74.4L89.6,74.4z"/>
  <path d="M80.9,78.8c0.2,1.2,1.1,2.1,2.3,2.1c1,0,1.3-1.2,1.6-2.1c0,0-1.1-0.8-1.9-0.8C82.1,78,80.9,78.8,80.9,78.8L80.9,78.8z"/>
  <path d="M86.3,78.2c-0.4,0.3-0.5,0.6-0.5,1.1c0,0.5,0,1.1,0.4,1.6c0.8,1,1.9,0,3.2,0c0.9,0,1.3-0.8,1.2-2.1c-0.1-0.7-1.1-0.6-1.8-0.6c-0.4,0-0.7,0-1.1,0C87.8,78.2,86.8,77.9,86.3,78.2L86.3,78.2z"/>
  <path d="M92.4,78.9c0,0.5,0,0.7,0,1.2c0,0.5,0.7,0.8,1.3,0.8c0.2,0,0.3,0,0.5,0c0,0,0.7-1.1,0.4-1.8c-0.2-0.5-0.8-0.9-1-0.9C93,78.2,92.7,78.6,92.4,78.9L92.4,78.9z"/>
  <path d="M93.9,82c-0.8,0-1.5,0-2.3,0c-1,0-2.4-0.1-2.4,0.8c0,0.4,0.4,0.8,0.8,1c0.4,0.2,0.4,0.3,0.9,0.3c0.6,0,1.3,0.1,1.8-0.1c0.4-0.1,0.9-0.2,1.2-0.5C94.2,83.2,94,82.5,93.9,82L93.9,82z"/>
  <path d="M89.6,89.1c-0.5,0.5,0,1.4,0.4,1.9c0.4,0.5,1,0.2,1.6,0.2c0.4,0,0.7,0.1,1.1,0.1c1.3,0,1.2-1.2,1.2-2.1C93.9,89,90.7,88.1,89.6,89.1L89.6,89.1z"/>
  <path d="M84.8,91.2c-0.7,0-1.1-0.1-1.5-0.6c-0.2-0.3-0.5-0.9-0.5-1.2c0-0.1,0-0.2,0-0.4c0.1,0,0.2-0.1,0.3-0.1c0.9,0,1.3-0.1,2.2-0.1c0.6,0,1.2,0.3,1.8,0.3c0.3,0,0.8,0.5,0.8,0.8C87.9,91.4,86.5,91.3,84.8,91.2L84.8,91.2z"/>
  <path d="M83.3,92.3c-0.4,0.6-0.7,1.1-0.7,1.8c0,0.5-0.2,1,1.4,0.8c0.4-0.1,1,0.2,1-0.7C85,93.4,84.3,92.2,83.3,92.3L83.3,92.3z"/>
  <path d="M85.9,93.7c0,0.7,0.2,1.4,1.4,1.3c0.5,0,1.7,0,1.7,0s0.9,0,1.4-0.2c0.4-0.2,0.9-0.5,0.9-1c0-0.5-0.5-0.7-0.8-1.1c-0.3-0.5-1.7-0.6-2.6-0.6C86.9,92.2,85.9,92.8,85.9,93.7L85.9,93.7z"/>
  <path d="M92.6,92.4c0,0-0.8,1.2-0.5,1.9c0.2,0.4,0.9,0.7,1.1,0.7c0.5,0,1-0.3,1-0.7C94.3,92.6,93.6,92.2,92.6,92.4L92.6,92.4z"/>
  <path d="M82.7,97.2c0,0.1,0,0.2,0,0.3c0,0.5-0.1,0.8,0.1,1.2c0.5,0.9,1.6,0.6,2.6,0.6c0.9,0,2.2,0.3,2.2-0.6c0-0.6,0.1-1.1-0.2-1.6c-0.4-0.6-1.2-0.3-1.9-0.4C83.8,96.5,83.7,96.8,82.7,97.2L82.7,97.2z"/>
  <path d="M89.6,96.7c-0.1,0.7-0.5,1-0.5,1.7c0,0.7,0.7,1.1,1.7,0.9c0.7-0.1,1.2,0.2,1.8-0.2c0.7-0.6,0.8-1.3,1-2.2c-0.3-0.1-0.7-0.3-1-0.3s-0.5,0.1-0.8,0.1C90.9,96.7,90.5,96.6,89.6,96.7L89.6,96.7z"/>
  <path d="M87.5,100.6c-0.9,0.4-1.6,0.6-1.6,1.5c0,0.7,0.9,0.6,1.6,0.6c1.1,0,2.5-0.6,2.2-1.8c-0.1-0.4-0.5-0.5-0.9-0.5C88.2,100.4,88,100.5,87.5,100.6L87.5,100.6z"/>
  <path d="M82.6,101.9c0,0.9,0,2,1.1,2c0.7,0.1,1.1-0.9,1.1-1.7c0-0.4-0.2-0.6-0.2-1c-0.3-0.4-0.7-1-1.2-0.7C82.9,100.8,82.6,101.3,82.6,101.9L82.6,101.9z"/>
  <path d="M52.8,100.5c-0.8,0-1.8,0.1-1.8,0.9c0,1.1,1.2,1.5,2.9,1.3c0.6,0,1.5,0.3,1.5-0.5C55.5,101,53.9,100.5,52.8,100.5L52.8,100.5z"/>
  <path d="M57,96.1c-0.4,0.3-1.5,0.5-2,0.6c-0.5,0.1-0.7,0.5-0.7,1.1c0,0.5,0,1,0,1.4c0.4,0.4,0.9,0.2,1.4,0.2c0.5,0,0.9,0.1,1.5,0.1c0.6,0,1.1-0.3,1.2-0.9C58.8,97.4,58.4,96.6,57,96.1L57,96.1z"/>
  <path d="M49.4,99.3c-0.5,0-1.1,0.2-1.3-0.3c-0.3-0.6-0.2-1.1-0.2-1.8c0-0.2,0-0.3,0-0.5c1.6,0,2.5,0,4.2,0c0.5,0,1.1,0.4,1.1,0.9c0,0.9-0.6,1.8-1.6,1.8C50.8,99.4,50.2,99.3,49.4,99.3L49.4,99.3z"/>
  <path d="M52.6,92.4c-0.6,0-1,0.8-1,1.4c0,0.5-0.3,1,0.1,1.3c1.7,1.3,6.5,0.1,6.5,0.1c0.2-0.5,0.4-1,0.4-1.6c0-1.1-1.4-1.2-2.5-1.2C55.7,92.4,53.3,92.4,52.6,92.4L52.6,92.4z"/>
  <path d="M47.7,95.1c0-0.6-0.5-1.2-0.5-1.8c0-0.5,0.7-0.8,1.2-0.9c1.5-0.2,2,2,1.1,2.7C48.9,95.5,47.7,95.1,47.7,95.1L47.7,95.1z"/>
  <path d="M49.9,91.3c-1.4,0-2.1-0.6-2.1-1.7c0-0.6,0.4-1.1,1.4-1c1,0.1,1.6,0,2.6,0c0.7,0,1,0.9,1,1.6C52.7,91.2,51.8,91.3,49.9,91.3L49.9,91.3z"/>
  <path d="M57.4,88.5c-0.4,0-0.6,0-1,0c-1.3,0-2,0-2,0.8c0,0.4,0,0.9,0.3,1.3c0.8,0,1.1,0.7,1.9,0.7c0.7,0,1.7-0.4,1.6-1.6C58.2,89.1,57.9,88.5,57.4,88.5L57.4,88.5z"/>
  <path d="M57.5,100.4c-0.6,0.1-0.5,1.1-0.6,1.7c0,1.3-0.1,1.7,0.6,1.7c0.3,0,0.9-0.2,0.9-0.8c0-0.6,0.3-0.8,0.3-1.4C58.8,101.1,58.3,100.5,57.5,100.4L57.5,100.4z"/>
  <path d="M93.4,64.6c-0.4,0-0.7,0-1.1,0c-0.5,0-0.6-0.7-0.6-1.2c0-0.4-0.2-0.7,0-1c0.4-0.8,2.4,0,2.4,0c0,0.4,0,0.6,0,1C94,63.8,93.6,64.3,93.4,64.6L93.4,64.6z"/>
  <polygon points="58,43.9 55,43.9 53.5,41.3 52.1,43.9 49.1,43.9 50.6,46.5 49.1,49 52.1,49 53.6,51.6 55.1,49 58,49 56.5,46.5 58,43.9"/>
  <path d="M65.6,84.7l0,21.8c1.3,0.7,2.6,0.9,4.5,0.9c0-9,0-27.6,0-27.6C67.6,79.8,65.6,82,65.6,84.7z"/>
  <path d="M76.3,84.7c0-2.8-1.9-5-4.4-5c0,0,0,18.7,0,27.6c1.6,0,3.1-0.1,4.4-0.9L76.3,84.7z"/>
  <path d="M63.8,105.7l0-21c0-3.8,3.1-6.8,7.1-6.8s7.1,3,7.1,6.8l0,21c0.8-0.2,1.5-0.5,2.2-1V84.5c0-5-4-8.9-9.3-8.9c-5.2,0-9.3,3.9-9.3,8.9v20.2C62.4,105.2,63.1,105.5,63.8,105.7z"/>
  <path d="M57.4,64c0,0.2,0.3,0.7,0.3,0.9c0,0.1,0.4,0,0.5,0c0.3,0,0.6-0.3,0.6-0.6c0-0.7,0.6-1.4,0.2-2.4c-0.2-0.5-1-0.3-1.5,0C57.3,62.6,57.4,63.3,57.4,64L57.4,64z"/>
  <path d="M47.2,83.4c0,0.6,1.6,0.5,2.3,0.5c1.2,0.1,1-0.3,2.3-0.3c0.3,0,1.5,0.1,1.5-0.3c0-0.9-0.6-1.3-2-1.4C48.4,81.9,47.8,82.3,47.2,83.4L47.2,83.4z"/>
  <path d="M88,82.7c-0.5-0.9-1.4-0.7-2.3-0.7c-0.5,0-1.1,0.1-1.6,0.1c-0.5,0-1,0.3-1,0.7c0,0.4,0.3,0.6,0.7,0.8C84.2,83.9,87.9,83.7,88,82.7L88,82.7z"/>
 </g>
</svg>